HIERARCHY
ROOT Hips
{
	OFFSET -0.148888 88.448799 3.733362
	CHANNELS 6 Xposition Yposition Zposition Zrotation Yrotation Xrotation 
	JOINT Spine
	{
		OFFSET 0.000000 8.814246 -2.080107
		CHANNELS 3 Zrotation Yrotation Xrotation
		JOINT Spine1
		{
			OFFSET 0.000000 8.844141 0.000000
			CHANNELS 3 Zrotation Yrotation Xrotation
			JOINT Spine2
			{
				OFFSET -0.000000 11.682268 -0.000000
				CHANNELS 3 Zrotation Yrotation Xrotation
				JOINT Spine3
				{
					OFFSET -0.000000 11.746700 -0.000000
					CHANNELS 3 Zrotation Yrotation Xrotation
					JOINT Neck
					{
						OFFSET 0.000000 17.658264 -0.000000
						CHANNELS 3 Zrotation Yrotation Xrotation
						JOINT Neck1
						{
							OFFSET 0.000000 5.101515 0.000000
							CHANNELS 3 Zrotation Yrotation Xrotation
							JOINT Head
							{
								OFFSET -0.000000 5.101515 -0.000000
								CHANNELS 3 Zrotation Yrotation Xrotation
								JOINT HeadEnd
								{
									OFFSET 0.000000 11.655085 -0.000000
									CHANNELS 3 Zrotation Yrotation Xrotation
									End Site
									{
										OFFSET 0.000000 0.000000 0.000000
									}
								}
							}
						}
					}
					JOINT RightShoulder
					{
						OFFSET -2.625389 11.175210 -0.000000
						CHANNELS 3 Zrotation Yrotation Xrotation
						JOINT RightArm
						{
							OFFSET -0.000000 10.434715 0.000000
							CHANNELS 3 Zrotation Yrotation Xrotation
							JOINT RightForeArm
							{
								OFFSET 0.000000 29.628420 0.000000
								CHANNELS 3 Zrotation Yrotation Xrotation
								JOINT RightHand
								{
									OFFSET 0.000000 22.857611 0.000000
									CHANNELS 3 Zrotation Yrotation Xrotation
									JOINT RightHandThumb1
									{
										OFFSET -2.867323 3.959563 2.944291
										CHANNELS 3 Zrotation Yrotation Xrotation
										JOINT RightHandThumb2
										{
											OFFSET -0.000000 3.350399 0.000000
											CHANNELS 3 Zrotation Yrotation Xrotation
											JOINT RightHandThumb3
											{
												OFFSET -0.000000 3.756509 0.000000
												CHANNELS 3 Zrotation Yrotation Xrotation
												JOINT RightHandThumb4
												{
													OFFSET 0.000000 3.147345 0.000000
													CHANNELS 3 Zrotation Yrotation Xrotation
													End Site
													{
														OFFSET 0.000000 0.000000 0.000000
													}
												}
											}
										}
									}
									JOINT RightHandIndex1
									{
										OFFSET -0.086752 10.030893 2.345280
										CHANNELS 3 Zrotation Yrotation Xrotation
										JOINT RightHandIndex2
										{
											OFFSET 0.000000 4.061090 -0.000000
											CHANNELS 3 Zrotation Yrotation Xrotation
											JOINT RightHandIndex3
											{
												OFFSET -0.000000 3.248873 0.000000
												CHANNELS 3 Zrotation Yrotation Xrotation
												JOINT RightHandIndex4
												{
													OFFSET 0.000000 2.639709 -0.000000
													CHANNELS 3 Zrotation Yrotation Xrotation
													End Site
													{
														OFFSET 0.000000 0.000000 0.000000
													}
												}
											}
										}
									}
									JOINT RightHandMiddle1
									{
										OFFSET 0.104102 9.502952 0.006768
										CHANNELS 3 Zrotation Yrotation Xrotation
										JOINT RightHandMiddle2
										{
											OFFSET 0.000000 4.568727 0.000000
											CHANNELS 3 Zrotation Yrotation Xrotation
											JOINT RightHandMiddle3
											{
												OFFSET 0.000000 3.654981 -0.000000
												CHANNELS 3 Zrotation Yrotation Xrotation
												JOINT RightHandMiddle4
												{
													OFFSET -0.000000 2.741236 0.000000
													CHANNELS 3 Zrotation Yrotation Xrotation
													End Site
													{
														OFFSET 0.000000 0.000000 0.000000
													}
												}
											}
										}
									}
									JOINT RightHandRing1
									{
										OFFSET 0.086752 8.921708 -2.267442
										CHANNELS 3 Zrotation Yrotation Xrotation
										JOINT RightHandRing2
										{
											OFFSET -0.000000 4.061090 0.000000
											CHANNELS 3 Zrotation Yrotation Xrotation
											JOINT RightHandRing3
											{
												OFFSET -0.000000 3.654981 0.000000
												CHANNELS 3 Zrotation Yrotation Xrotation
												JOINT RightHandRing4
												{
													OFFSET -0.000000 2.741236 0.000000
													CHANNELS 3 Zrotation Yrotation Xrotation
													End Site
													{
														OFFSET 0.000000 0.000000 0.000000
													}
												}
											}
										}
									}
									JOINT RightHandPinky1
									{
										OFFSET -0.173504 7.976997 -4.467199
										CHANNELS 3 Zrotation Yrotation Xrotation
										JOINT RightHandPinky2
										{
											OFFSET -0.000000 3.350399 0.000000
											CHANNELS 3 Zrotation Yrotation Xrotation
											JOINT RightHandPinky3
											{
												OFFSET -0.000000 2.842763 0.000000
												CHANNELS 3 Zrotation Yrotation Xrotation
												JOINT RightHandPinky4
												{
													OFFSET 0.000000 2.639709 -0.000000
													CHANNELS 3 Zrotation Yrotation Xrotation
													End Site
													{
														OFFSET 0.000000 0.000000 0.000000
													}
												}
											}
										}
									}
									JOINT RightForeArmEnd
									{
										OFFSET 0.000000 0.000000 0.000000
										CHANNELS 3 Zrotation Yrotation Xrotation
										End Site
										{
											OFFSET 0.000000 0.000000 0.000000
										}
									}
								}
								JOINT RightArmEnd
								{
									OFFSET 0.000000 0.000000 0.000000
									CHANNELS 3 Zrotation Yrotation Xrotation
									End Site
									{
										OFFSET 0.000000 0.000000 0.000000
									}
								}
							}
						}
					}
					JOINT LeftShoulder
					{
						OFFSET 2.625389 11.175210 0.000000
						CHANNELS 3 Zrotation Yrotation Xrotation
						JOINT LeftArm
						{
							OFFSET -0.000000 10.813635 -0.000000
							CHANNELS 3 Zrotation Yrotation Xrotation
							JOINT LeftForeArm
							{
								OFFSET 0.000000 28.724781 0.000000
								CHANNELS 3 Zrotation Yrotation Xrotation
								JOINT LeftHand
								{
									OFFSET 0.644384 25.716167 -0.328871
									CHANNELS 3 Zrotation Yrotation Xrotation
									JOINT LeftHandThumb1
									{
										OFFSET 2.867323 3.959563 2.944291
										CHANNELS 3 Zrotation Yrotation Xrotation
										JOINT LeftHandThumb2
										{
											OFFSET 0.000000 3.350399 -0.000000
											CHANNELS 3 Zrotation Yrotation Xrotation
											JOINT LeftHandThumb3
											{
												OFFSET 0.000000 3.756509 0.000000
												CHANNELS 3 Zrotation Yrotation Xrotation
												JOINT LeftHandThumb4
												{
													OFFSET -0.000000 3.100000 0.000000
													CHANNELS 3 Zrotation Yrotation Xrotation
													End Site
													{
														OFFSET 0.000000 0.000000 0.000000
													}
												}
											}
										}
									}
									JOINT LeftHandIndex1
									{
										OFFSET 0.086752 10.030893 2.345280
										CHANNELS 3 Zrotation Yrotation Xrotation
										JOINT LeftHandIndex2
										{
											OFFSET -0.000000 4.061090 0.000000
											CHANNELS 3 Zrotation Yrotation Xrotation
											JOINT LeftHandIndex3
											{
												OFFSET 0.000000 3.248873 0.000000
												CHANNELS 3 Zrotation Yrotation Xrotation
												JOINT LeftHandIndex4
												{
													OFFSET -0.000000 2.639709 -0.000000
													CHANNELS 3 Zrotation Yrotation Xrotation
													End Site
													{
														OFFSET 0.000000 0.000000 0.000000
													}
												}
											}
										}
									}
									JOINT LeftHandMiddle1
									{
										OFFSET -0.104102 9.502952 0.006768
										CHANNELS 3 Zrotation Yrotation Xrotation
										JOINT LeftHandMiddle2
										{
											OFFSET -0.000000 4.568727 -0.000000
											CHANNELS 3 Zrotation Yrotation Xrotation
											JOINT LeftHandMiddle3
											{
												OFFSET 0.000000 3.654981 0.000000
												CHANNELS 3 Zrotation Yrotation Xrotation
												JOINT LeftHandMiddle4
												{
													OFFSET 0.000000 2.741236 0.000000
													CHANNELS 3 Zrotation Yrotation Xrotation
													End Site
													{
														OFFSET 0.000000 0.000000 0.000000
													}
												}
											}
										}
									}
									JOINT LeftHandRing1
									{
										OFFSET -0.086752 8.921708 -2.267442
										CHANNELS 3 Zrotation Yrotation Xrotation
										JOINT LeftHandRing2
										{
											OFFSET 0.000000 4.061090 0.000000
											CHANNELS 3 Zrotation Yrotation Xrotation
											JOINT LeftHandRing3
											{
												OFFSET 0.000000 3.654981 0.000000
												CHANNELS 3 Zrotation Yrotation Xrotation
												JOINT LeftHandRing4
												{
													OFFSET -0.000000 2.741236 0.000000
													CHANNELS 3 Zrotation Yrotation Xrotation
													End Site
													{
														OFFSET 0.000000 0.000000 0.000000
													}
												}
											}
										}
									}
									JOINT LeftHandPinky1
									{
										OFFSET 0.173504 7.976997 -4.467199
										CHANNELS 3 Zrotation Yrotation Xrotation
										JOINT LeftHandPinky2
										{
											OFFSET -0.000000 3.350399 -0.000000
											CHANNELS 3 Zrotation Yrotation Xrotation
											JOINT LeftHandPinky3
											{
												OFFSET -0.000000 2.842763 0.000000
												CHANNELS 3 Zrotation Yrotation Xrotation
												JOINT LeftHandPinky4
												{
													OFFSET 0.000000 2.639709 0.000000
													CHANNELS 3 Zrotation Yrotation Xrotation
													End Site
													{
														OFFSET 0.000000 0.000000 0.000000
													}
												}
											}
										}
									}
									JOINT LeftForeArmEnd
									{
										OFFSET 0.000000 0.000000 0.000000
										CHANNELS 3 Zrotation Yrotation Xrotation
										End Site
										{
											OFFSET 0.000000 0.000000 0.000000
										}
									}
								}
								JOINT LeftArmEnd
								{
									OFFSET 0.000000 0.000000 0.000000
									CHANNELS 3 Zrotation Yrotation Xrotation
									End Site
									{
										OFFSET 0.000000 0.000000 0.000000
									}
								}
							}
						}
					}
				}
			}
		}
	}
	JOINT RightUpLeg
	{
		OFFSET -11.289943 -0.000000 -0.000000
		CHANNELS 3 Zrotation Yrotation Xrotation
		JOINT RightLeg
		{
			OFFSET 0.000000 -38.200325 0.000000
			CHANNELS 3 Zrotation Yrotation Xrotation
			JOINT RightFoot
			{
				OFFSET 0.000000 -39.900856 -0.000000
				CHANNELS 3 Zrotation Yrotation Xrotation
				JOINT RightToeBase
				{
					OFFSET 0.000000 0.000000 15.261641
					CHANNELS 3 Zrotation Yrotation Xrotation
					JOINT RightToeBaseEnd
					{
						OFFSET -0.000000 -0.000000 7.370709
						CHANNELS 3 Zrotation Yrotation Xrotation
						End Site
						{
							OFFSET 0.000000 0.000000 0.000000
						}
					}
				}
				JOINT RightLegEnd
				{
					OFFSET 0.000000 0.000000 0.000000
					CHANNELS 3 Zrotation Yrotation Xrotation
					End Site
					{
						OFFSET 0.000000 0.000000 0.000000
					}
				}
			}
			JOINT RightUpLegEnd
			{
				OFFSET 0.000000 0.000000 0.000000
				CHANNELS 3 Zrotation Yrotation Xrotation
				End Site
				{
					OFFSET 0.000000 0.000000 0.000000
				}
			}
		}
	}
	JOINT LeftUpLeg
	{
		OFFSET 11.315661 -0.000000 0.000000
		CHANNELS 3 Zrotation Yrotation Xrotation
		JOINT LeftLeg
		{
			OFFSET -0.000000 -38.200325 -0.000000
			CHANNELS 3 Zrotation Yrotation Xrotation
			JOINT LeftFoot
			{
				OFFSET 0.000000 -39.900856 -0.000000
				CHANNELS 3 Zrotation Yrotation Xrotation
				JOINT LeftToeBase
				{
					OFFSET 0.000000 0.000000 15.261641
					CHANNELS 3 Zrotation Yrotation Xrotation
					JOINT LeftToeBaseEnd
					{
						OFFSET 0.000000 -0.000000 7.539996
						CHANNELS 3 Zrotation Yrotation Xrotation
						End Site
						{
							OFFSET 0.000000 0.000000 0.000000
						}
					}
				}
				JOINT LeftLegEnd
				{
					OFFSET 0.000000 0.000000 0.000000
					CHANNELS 3 Zrotation Yrotation Xrotation
					End Site
					{
						OFFSET 0.000000 0.000000 0.000000
					}
				}
			}
			JOINT LeftUpLegEnd
			{
				OFFSET 0.000000 0.000000 0.000000
				CHANNELS 3 Zrotation Yrotation Xrotation
				End Site
				{
					OFFSET 0.000000 0.000000 0.000000
				}
			}
		}
	}
}
MOTION
Frames: 4
Frame Time: 0.016667
-8.019997 87.090225 13.484571 -3.338642 -6.858868 -12.550097 3.075913 0.058347 7.186765 -0.304518 0.202270 3.272897 -1.668818 -1.479342 4.326768 -1.105667 -0.707642 4.367911 1.249353 5.156726 5.943330 0.161894 6.145622 -3.821823 -2.703034 -0.842309 -22.555326 0.000000 0.000000 0.000000 85.679245 0.808188 5.530721 45.789722 24.833384 1.042349 -0.576711 26.471054 99.477173 38.858009 39.398262 29.260057 9.030765 -1.623242 40.707024 -0.000000 -0.000037 -22.013628 -0.000024 0.000032 -15.099244 -0.000001 0.000013 0.000007 2.037294 -0.054825 -0.846585 3.280558 -0.089314 0.140284 3.300640 -0.076979 0.122870 -0.000002 0.000027 -0.000006 2.417441 -0.053240 -3.949118 2.725878 -0.039492 0.060094 3.266622 -0.020154 0.066329 -0.000010 -0.000169 0.000014 5.257194 0.048129 -8.925891 4.053950 0.068856 -0.107711 4.074443 0.044832 -0.081349 0.000024 0.001179 0.000006 5.895236 0.131594 -15.129129 5.024902 0.211361 -0.079222 4.683639 0.163860 -0.074079 -0.000820 -0.000006 -0.000020 0.000000 0.000000 0.000000 0.000000 0.000000 0.000000 -87.107468 0.411899 1.554805 -56.541882 -33.065411 -7.918195 -2.918204 -24.731653 84.188484 -22.364985 -23.255251 4.543126 -5.831146 1.192517 42.016445 -0.000012 0.000010 -15.314220 -0.000029 -0.000045 -10.524330 -0.000195 -0.000016 -0.001158 10.572633 -0.042744 2.345765 -0.275043 -0.107118 -0.373610 -0.352638 -0.087430 -0.360820 0.000026 0.000013 -0.000008 8.324060 -0.020794 -0.687374 -0.601784 -0.048900 -0.142616 -0.741651 -0.029205 -0.110449 0.002468 -0.000022 0.000073 0.198575 0.002204 -6.117346 -3.549330 0.059629 0.131542 -3.387297 0.039544 0.119225 -0.000168 0.000025 0.000000 -5.906599 -0.007412 -12.345117 -6.772293 0.143411 0.418321 -6.894700 0.108624 0.287592 0.000275 0.000004 -0.000040 0.000000 0.000000 0.000000 0.000000 0.000000 0.000000 -1.077420 -11.925618 7.630450 -0.206018 -0.881946 14.145319 -0.112239 -12.008161 16.952459 -0.936785 1.481759 -17.233288 0.000000 0.000000 0.000000 0.000000 0.000000 0.000000 0.000000 0.000000 0.000000 14.203140 3.810350 7.573648 0.399826 0.957362 23.792355 -8.622420 19.301531 12.586245 1.739228 -0.518376 -21.180258 0.000000 0.000000 0.000000 0.000000 0.000000 0.000000 0.000000 0.000000 0.000000 
-8.658244 87.060905 13.517483 -3.344237 -6.812851 -12.386196 3.108787 0.049859 7.083306 -0.256195 0.182881 3.275625 -1.701456 -1.553427 4.142308 -1.080745 -0.754333 4.258712 1.009813 5.271711 5.866944 0.106188 6.171947 -3.926271 -2.763568 -0.828940 -22.594610 0.000000 0.000000 0.000000 85.558693 0.809322 5.425649 45.688057 25.406778 1.312399 -0.534239 26.509779 100.464973 40.798050 39.711998 30.880711 9.075023 -1.632917 40.680836 -0.000000 -0.000037 -22.129498 -0.000024 0.000032 -15.171033 -0.000001 0.000013 0.000007 2.314367 -0.053777 -0.728444 3.287139 -0.089587 0.148133 3.305871 -0.077596 0.128448 -0.000002 0.000027 -0.000008 2.725574 -0.052530 -3.833355 2.743136 -0.039573 0.062495 3.280843 -0.020384 0.067688 -0.000009 -0.000177 0.000013 5.581003 0.048513 -8.819199 4.103192 0.068604 -0.107681 4.122660 0.044830 -0.080196 0.000023 0.001041 0.000006 6.214319 0.133944 -15.048086 5.096887 0.212264 -0.075723 4.757995 0.164249 -0.069627 -0.000848 -0.000006 -0.000023 0.000000 0.000000 0.000000 0.000000 0.000000 0.000000 -87.059464 0.389050 1.500184 -56.325798 -33.132126 -8.007504 -2.904922 -24.690880 84.340103 -22.591606 -22.421898 4.305166 -5.820848 1.191054 42.017380 -0.000012 0.000010 -15.314670 -0.000022 -0.000045 -10.525434 -0.000310 -0.000016 -0.001155 10.545114 -0.043816 2.461456 -0.364905 -0.105203 -0.370759 -0.449557 -0.085788 -0.355048 0.000027 -0.000117 -0.000009 8.274571 -0.021104 -0.588804 -0.702413 -0.048236 -0.140939 -0.835859 -0.028837 -0.108313 0.002556 -0.000022 0.000082 0.198445 0.001196 -6.028390 -3.641617 0.058464 0.129337 -3.474555 0.039019 0.115991 -0.000143 0.000024 0.000001 -5.900783 -0.009913 -12.246847 -6.822289 0.141695 0.413020 -6.964433 0.108117 0.280809 0.000353 0.000003 -0.000041 0.000000 0.000000 0.000000 0.000000 0.000000 0.000000 -0.708721 -11.963206 7.555820 -0.200498 -0.856884 14.122968 -0.384533 -12.166797 16.832346 -0.912777 1.456282 -17.195120 0.000000 0.000000 0.000000 0.000000 0.000000 0.000000 0.000000 0.000000 0.000000 14.510313 3.654271 7.250641 0.410540 0.962473 24.136305 -8.772787 19.399315 12.779927 1.748770 -0.487829 -21.273075 0.000000 0.000000 0.000000 0.000000 0.000000 0.000000 0.000000 0.000000 0.000000 
-9.277633 87.033333 13.553919 -3.346105 -6.769217 -12.219769 3.145437 0.040152 6.983717 -0.190579 0.159204 3.276847 -1.738595 -1.615016 3.975618 -1.062654 -0.798328 4.146572 0.816426 5.384469 5.743117 0.050084 6.207487 -4.045381 -2.820320 -0.811707 -22.621572 0.000000 0.000000 0.000000 85.452560 0.808765 5.318456 45.672447 26.006845 1.529932 -0.493430 26.580669 101.385437 42.449966 40.167339 32.428478 9.130831 -1.643991 40.649456 0.000001 -0.000036 -22.274630 -0.000024 0.000032 -15.264112 -0.000001 0.000014 0.000007 2.640943 -0.053865 -0.623780 3.316897 -0.088655 0.150684 3.334519 -0.076962 0.129449 -0.000002 0.000027 -0.000009 3.072307 -0.051978 -3.717417 2.783463 -0.039138 0.062751 3.318429 -0.020219 0.067181 -0.000008 -0.000182 0.000012 5.925305 0.049228 -8.700958 4.167599 0.067571 -0.105400 4.186667 0.044274 -0.077464 0.000022 0.000898 0.000006 6.526213 0.136401 -14.938660 5.172589 0.210999 -0.067592 4.837412 0.163213 -0.061106 -0.000868 -0.000006 -0.000025 0.000000 0.000000 0.000000 0.000000 0.000000 0.000000 -87.028214 0.368275 1.449107 -56.170578 -33.201004 -8.111758 -2.889495 -24.669558 84.596222 -22.864468 -21.537041 4.165256 -5.810743 1.189324 42.018490 -0.000012 0.000011 -15.315108 -0.000014 -0.000044 -10.526260 -0.000413 -0.000015 -0.001171 10.529993 -0.045492 2.574171 -0.436446 -0.103383 -0.367834 -0.527710 -0.084324 -0.349434 0.000028 -0.000250 -0.000010 8.241158 -0.021726 -0.482757 -0.783765 -0.047545 -0.139145 -0.911424 -0.028404 -0.106095 0.002644 -0.000021 0.000093 0.227184 0.000431 -5.928012 -3.711081 0.057301 0.127467 -3.537480 0.038493 0.113204 -0.000111 0.000024 0.000001 -5.863138 -0.010993 -12.135763 -6.848535 0.140292 0.409590 -7.008151 0.107787 0.276098 0.000424 0.000002 -0.000041 0.000000 0.000000 0.000000 0.000000 0.000000 0.000000 -0.349335 -11.964997 7.468047 -0.194536 -0.829557 14.103877 -0.646539 -12.318445 16.730530 -0.889022 1.428462 -17.160698 0.000000 0.000000 0.000000 0.000000 0.000000 0.000000 0.000000 0.000000 0.000000 14.787798 3.495662 6.914094 0.420641 0.966503 24.480381 -8.904322 19.511986 12.983062 1.754667 -0.460697 -21.370474 0.000000 0.000000 0.000000 0.000000 0.000000 0.000000 0.000000 0.000000 0.000000 
-9.876514 87.008652 13.591763 -3.342256 -6.729832 -12.050350 3.185035 0.028993 6.892106 -0.116593 0.133065 3.282310 -1.776565 -1.670060 3.821096 -1.047295 -0.839046 4.037376 0.650747 5.496987 5.596242 -0.006502 6.248186 -4.169009 -2.873912 -0.791399 -22.639654 0.000000 0.000000 0.000000 85.362923 0.806938 5.208458 45.719093 26.666853 1.708939 -0.456116 26.674982 102.195030 43.800682 40.695633 33.858364 9.186544 -1.655739 40.617107 0.000001 -0.000035 -22.421206 -0.000024 0.000033 -15.358606 -0.000001 0.000014 0.000008 2.986431 -0.054684 -0.520266 3.359324 -0.087352 0.149450 3.375803 -0.075877 0.126984 -0.000002 0.000026 -0.000010 3.427122 -0.051439 -3.598427 2.836130 -0.038531 0.061572 3.367433 -0.019919 0.065403 -0.000007 -0.000187 0.000011 6.261659 0.049949 -8.570331 4.236715 0.066444 -0.101859 4.255296 0.043614 -0.073886 0.000021 0.000766 0.000005 6.807424 0.138386 -14.805965 5.242914 0.209702 -0.058303 4.912536 0.162287 -0.051237 -0.000879 -0.000006 -0.000027 0.000000 0.000000 0.000000 0.000000 0.000000 0.000000 -87.004478 0.351470 1.400440 -56.089424 -33.288692 -8.214020 -2.868779 -24.654375 84.918259 -23.136200 -20.604134 4.094019 -5.794748 1.187253 42.021980 -0.000011 0.000011 -15.298750 -0.000007 -0.000044 -10.514664 -0.000510 -0.000014 -0.001178 10.542938 -0.047419 2.694897 -0.489050 -0.101752 -0.364047 -0.585961 -0.083014 -0.343075 0.000028 -0.000390 -0.000010 8.237752 -0.022507 -0.366349 -0.845564 -0.046843 -0.136954 -0.967382 -0.027919 -0.103592 0.002728 -0.000021 0.000104 0.290482 -0.000264 -5.815390 -3.759397 0.056221 0.125579 -3.578436 0.038000 0.110454 -0.000070 0.000023 0.000001 -5.791244 -0.011475 -12.014281 -6.854506 0.139371 0.406996 -7.028780 0.107770 0.272337 0.000491 0.000002 -0.000041 0.000000 0.000000 0.000000 0.000000 0.000000 0.000000 -0.002110 -11.940004 7.363423 -0.188208 -0.800532 14.090251 -0.902427 -12.459768 16.648357 -0.864591 1.398397 -17.134155 0.000000 0.000000 0.000000 0.000000 0.000000 0.000000 0.000000 0.000000 0.000000 15.033471 3.339383 6.567581 0.429990 0.969053 24.818293 -9.014354 19.638731 13.205649 1.757216 -0.435885 -21.479130 0.000000 0.000000 0.000000 0.000000 0.000000 0.000000 0.000000 0.000000 0.000000 
